<?xml version="1.0" encoding="UTF-8"?>
<svg width="60px" height="44px" viewBox="0 0 60 44" version="1.1" xmlns="http://www.w3.org/2000/svg" xmlns:xlink="http://www.w3.org/1999/xlink">
    <g   stroke="none" stroke-width="1" fill="none" fill-rule="evenodd">
        <g   transform="translate(-765, -468)" fill="#019DF4" fill-rule="nonzero">
            <g  transform="translate(765, 468)">
                <g   transform="translate(0, 0)">
                    <path d="M39.1378574,36.6965429 L10.0298762,36.6965429 C6.6837388,36.6965429 4.11438327,35.6978233 2.39863423,33.7430644 C0.802390098,31.9163466 0,29.2701665 0,25.8728126 L0,10.8237303 C0,7.42637644 0.810926163,4.78019633 2.39863423,2.95347845 C4.11438327,0.990183525 6.67520273,0 10.0298762,0 L40.7767819,0 C44.1229193,0 46.6922749,0.99871959 48.4080239,2.95347845 C50.004268,4.78019633 50.8066581,7.42637644 50.8066581,10.8237303 L50.8066581,12.5480154 C50.8066581,13.4869825 50.0384123,14.2552283 49.0994452,14.2552283 C48.160478,14.2552283 47.3922322,13.4869825 47.3922322,12.5480154 L47.3922322,10.8237303 C47.3922322,8.27998293 46.8715322,6.38497653 45.8301323,5.19846351 C44.7801963,3.99487836 43.1241997,3.40588988 40.7767819,3.40588988 L10.0298762,3.40588988 C7.68245839,3.40588988 6.0264618,3.99487836 4.97652582,5.19846351 C3.94366197,6.38497653 3.41442595,8.27998293 3.41442595,10.8237303 L3.41442595,25.8728126 C3.41442595,28.41656 3.93512591,30.3115664 4.97652582,31.4980794 C6.0264618,32.7016645 7.68245839,33.290653 10.0298762,33.290653 L39.1378574,33.290653 C40.0768246,33.290653 40.8450704,34.0588988 40.8450704,34.997866 C40.8450704,35.9368331 40.0853606,36.6965429 39.1378574,36.6965429 Z M32.4797268,43.4058899 L17.498933,43.4058899 C16.5599659,43.4058899 15.79172,42.637644 15.79172,41.6986769 C15.79172,40.7597098 16.5599659,39.9914639 17.498933,39.9914639 L32.4797268,39.9914639 C33.418694,39.9914639 34.1869398,40.7597098 34.1869398,41.6986769 C34.1869398,42.637644 33.42723,43.4058899 32.4797268,43.4058899 Z" id="Shape"></path>
                    <path d="M53.6064874,43.3973538 L44.6606914,43.3973538 C40.4865557,43.3973538 38.2757149,41.186513 38.2757149,37.0123773 L38.2757149,17.234315 C38.2757149,13.1199317 40.5463082,10.8493385 44.6606914,10.8493385 L53.6150235,10.8493385 C57.7891592,10.8493385 60,13.0601793 60,17.234315 L60,37.0123773 C59.9914639,41.186513 57.7891592,43.3973538 53.6064874,43.3973538 L53.6064874,43.3973538 Z M44.6606914,14.2552283 C42.4413146,14.2552283 41.6901408,15.006402 41.6901408,17.2257789 L41.6901408,37.0038412 C41.6901408,38.1476739 41.9035425,38.941528 42.3218096,39.3597951 C42.7400768,39.7695262 43.5253948,39.9829279 44.6692275,39.9829279 L53.6235595,39.9829279 C54.7673922,39.9829279 55.5527102,39.7780623 55.9709774,39.3597951 C56.3892446,38.950064 56.6026462,38.15621 56.6026462,37.0038412 L56.6026462,17.234315 C56.6026462,14.9551857 55.9112249,14.2637644 53.6320956,14.2637644 L44.6606914,14.2637644 L44.6606914,14.2552283 Z" id="Shape"></path>
                    <g  transform="translate(46.8545, 33.3419)">
                        <path d="M2.27912932,0.845070423 C1.41698677,0.845070423 0.853606487,1.29748186 0.853606487,2.27912932 C0.853606487,2.74861289 0.981647461,3.09859155 1.21212121,3.3290653 C1.45966709,3.58514725 1.82671788,3.70465216 2.27912932,3.70465216 C2.73154076,3.70465216 3.09005548,3.58514725 3.34613743,3.3290653 C3.57661118,3.09005548 3.70465216,2.74861289 3.70465216,2.27912932 C3.70465216,1.30601793 3.14127187,0.845070423 2.27912932,0.845070423 L2.27912932,0.845070423 Z" id="Path"></path>
                        <path d="M2.27912932,4.56679471 C1.4084507,4.56679471 0.887750747,4.22535211 0.606060606,3.93512591 C0.33290653,3.65343577 0,3.14127187 0,2.28766539 C0,0.896286812 0.896286812,0 2.27912932,0 C3.66197183,0 4.55825864,0.896286812 4.55825864,2.28766539 C4.55825864,3.14127187 4.23388818,3.65343577 3.95219804,3.93512591 C3.6705079,4.21681605 3.14980794,4.56679471 2.27912932,4.56679471 Z M2.27912932,1.69867691 C1.83525395,1.69867691 1.70721297,1.82671788 1.70721297,2.27912932 C1.70721297,2.49253094 1.7498933,2.65471618 1.82671788,2.73154076 C1.90354247,2.80836534 2.0657277,2.85104567 2.27912932,2.85104567 C2.49253094,2.85104567 2.65471618,2.80836534 2.73154076,2.73154076 C2.80836534,2.65471618 2.85104567,2.49253094 2.85104567,2.27912932 C2.85104567,1.82671788 2.72300469,1.69867691 2.27912932,1.69867691 L2.27912932,1.69867691 Z" id="Shape"></path>
                    </g>
                </g>
            </g>
        </g>
    </g>
</svg>