<?xml version="1.0" encoding="UTF-8"?>
<svg width="59px" height="59px" viewBox="0 0 59 59" version="1.1" xmlns="http://www.w3.org/2000/svg" xmlns:xlink="http://www.w3.org/1999/xlink">
    <title>Shape</title>
    <g id="Modulo-beneficts" stroke="none" stroke-width="1" fill="none" fill-rule="evenodd">
        <g id="Landings-Movistar-Plus+-Copy-2" transform="translate(-251.000000, -1003.000000)" fill="#019DF4">
            <path d="M296.937393,1055.44319 C293.982356,1057.30697 290.817445,1058.32281 288.080677,1058.88531 C288.114257,1058.73419 288.131047,1058.57468 288.181417,1058.42356 L290.69152,1050.70819 C290.918184,1049.97779 291.396699,1049.31455 292.059903,1048.84441 C292.706318,1048.37426 293.461867,1048.17277 294.276181,1048.1308 L302.394138,1048.1308 C302.872652,1048.1308 303.334377,1048.24833 303.770916,1048.42464 C302.091918,1051.27068 299.749715,1053.68016 296.937393,1055.44319 Z M282.036283,1059.54015 L281.473819,1059.54015 C280.743455,1059.54015 279.979511,1059.53175 279.324701,1059.51496 C278.376067,1059.48977 276.864969,1059.39743 275.060046,1059.11198 C275.034861,1058.57468 274.934121,1058.04577 274.774616,1057.53365 L272.272908,1049.85185 C271.995874,1048.97873 271.525754,1048.18117 270.887735,1047.51793 L273.179567,1044.05063 C274.119806,1044.62991 275.20276,1044.95734 276.352874,1044.95734 L284.537991,1044.95734 C285.637735,1044.95734 286.687109,1044.6551 287.602163,1044.13459 L289.734491,1047.61028 C289.096471,1048.27352 288.617957,1049.07948 288.332527,1049.96099 L285.84761,1057.65118 C285.67971,1058.18009 285.587365,1058.73419 285.56218,1059.28829 C284.093056,1059.46459 282.850598,1059.53175 282.036283,1059.54015 Z M257.287849,1048.1224 C257.581673,1048.04684 257.892288,1047.98808 258.261668,1047.98808 L266.371229,1047.98808 C267.118384,1048.05524 267.915908,1048.23154 268.570717,1048.70168 C269.225526,1049.17183 269.704041,1049.84346 269.939101,1050.59065 L272.449203,1058.29763 C272.482783,1058.38998 272.482783,1058.49072 272.507968,1058.59147 C269.922311,1057.97021 267.017644,1056.95436 264.280876,1055.23331 C261.418184,1053.45348 259.025612,1051.01042 257.287849,1048.1224 L257.287849,1048.1224 Z M258.328828,1015.16206 C258.589072,1015.50627 258.790552,1015.88406 258.924872,1016.30383 L261.434974,1024.0192 C261.678429,1024.74121 261.678429,1025.56396 261.434974,1026.32794 C261.19152,1027.08353 260.713005,1027.74676 260.066591,1028.20851 L253.510102,1032.9687 C253.501707,1032.9771 253.493312,1032.9771 253.484917,1032.98549 C253.484917,1032.7924 253.459732,1032.6077 253.459732,1032.40621 C253.459732,1024.64046 255.44095,1019.10789 258.328828,1015.16206 L258.328828,1015.16206 Z M268.747012,1007.44668 C269.166762,1008.09313 269.653671,1008.68081 270.29169,1009.13416 L276.831389,1013.88595 C277.544963,1014.41487 278.384462,1014.76747 279.274331,1014.95217 L279.274331,1020.20769 C278.392857,1020.35881 277.561753,1020.70302 276.839784,1021.23193 L270.29169,1025.98373 C269.536141,1026.52943 268.906517,1027.24304 268.461582,1028.06579 L264.012237,1026.00891 C264.138162,1025.06863 264.062607,1024.11995 263.768782,1023.24683 L261.267075,1015.54824 C260.99004,1014.69191 260.51992,1013.90275 259.907086,1013.2479 C262.551508,1010.41026 265.69963,1008.59685 268.747012,1007.44668 Z M279.190381,1005.47376 C280.06346,1005.45697 280.93654,1005.45697 281.809619,1005.46537 C283.354297,1005.49055 286.384889,1005.68365 289.810046,1006.62393 C289.633751,1006.80863 289.474246,1007.00173 289.264371,1007.15284 L282.699488,1011.92143 C281.473819,1012.84492 279.542971,1012.85332 278.283722,1011.91304 L271.727234,1007.14445 C271.534149,1007.00173 271.374644,1006.82542 271.215139,1006.64912 C273.817587,1005.92711 276.495589,1005.53253 279.190381,1005.47376 Z M301.143284,1013.2563 C300.438105,1013.95312 299.900825,1014.80945 299.598606,1015.74973 L297.096898,1023.43153 C296.803073,1024.31304 296.719124,1025.25333 296.845048,1026.17682 L292.496443,1028.00702 C292.059903,1027.20946 291.447069,1026.52943 290.716705,1025.99212 L284.185401,1021.24872 C283.463432,1020.71981 282.623933,1020.3672 281.742459,1020.21609 L281.742459,1014.96057 C282.623933,1014.78426 283.471827,1014.43166 284.168611,1013.90275 L290.70831,1009.15095 C291.363119,1008.6892 291.858423,1008.07634 292.278173,1007.4215 C293.797666,1007.99238 295.342345,1008.71439 296.845048,1009.66307 C298.465282,1010.67052 299.884035,1011.88785 301.143284,1013.2563 L301.143284,1013.2563 Z M272.868953,1039.9117 L272.591918,1039.06376 L272.583523,1039.06376 L270.35885,1032.18793 C269.846756,1030.63478 270.400825,1028.92212 271.735629,1027.97344 L278.300512,1023.20485 C279.517786,1022.28136 281.448634,1022.27296 282.716278,1023.21325 L289.272766,1027.97344 C290.60757,1028.93051 291.161639,1030.62639 290.649545,1032.18793 L288.139442,1039.87812 C287.635743,1041.43127 286.191804,1042.48909 284.554781,1042.48909 L276.436824,1042.48909 C274.866961,1042.58144 273.389442,1041.48164 272.868953,1039.9117 Z M268.898122,1046.08232 C268.075413,1045.69613 267.185544,1045.48625 266.354439,1045.53662 L258.270063,1045.53662 C257.531303,1045.55341 256.800939,1045.70453 256.104155,1045.96478 C254.727376,1043.00121 253.896272,1039.56749 253.602447,1035.7056 C254.080962,1035.51251 254.542686,1035.26904 254.962436,1034.96681 L261.493739,1030.21501 C262.182129,1029.72808 262.752988,1029.07324 263.189528,1028.34284 L267.756403,1030.45008 C267.672453,1031.28962 267.764798,1032.14595 268.025043,1032.95191 L270.81218,1041.52362 L270.887735,1041.52362 C271.03045,1041.80906 271.231929,1042.03574 271.408224,1042.29599 C271.399829,1042.29599 268.898122,1046.08232 268.898122,1046.08232 L268.898122,1046.08232 Z M291.766079,1046.20825 L289.491036,1042.49748 C289.910785,1041.95178 290.246585,1041.33052 290.47325,1040.6421 L292.974957,1032.95191 C293.260387,1032.09558 293.327547,1031.20567 293.235202,1030.34934 L297.642573,1028.49395 C298.087507,1029.24954 298.658367,1029.91278 299.346756,1030.39971 L305.894849,1035.15151 C306.356574,1035.48732 306.868668,1035.73918 307.405948,1035.94067 C307.112123,1039.81935 306.297809,1043.25307 304.95461,1046.20825 C304.148691,1045.83885 303.284007,1045.64576 302.402533,1045.64576 L294.292971,1045.64576 C293.419892,1045.69613 292.563603,1045.88083 291.766079,1046.20825 L291.766079,1046.20825 Z M307.515083,1033.27094 C307.456318,1033.23735 307.397553,1033.21217 307.347183,1033.17019 L300.782299,1028.41 C300.135885,1027.94825 299.665766,1027.29341 299.422311,1026.53782 C299.170461,1025.78224 299.170461,1024.96788 299.422311,1024.2123 L301.924018,1016.50532 C302.083523,1016.00999 302.360558,1015.58183 302.696357,1015.19564 C305.894849,1019.61162 307.540268,1025.40445 307.540268,1032.5993 C307.540268,1032.82598 307.523478,1033.04426 307.515083,1033.27094 L307.515083,1033.27094 Z M281.851594,1003.00551 C280.95333,1002.99712 280.055065,1002.99712 279.156801,1003.01391 C273.523762,1003.11465 251,1005.2303 251,1032.423 C251,1059.54854 273.490182,1061.83209 279.265936,1061.97481 C279.937536,1061.9916 280.71827,1062 281.473819,1062 L282.061468,1062 C287.988332,1061.94963 310,1059.91794 310,1032.59091 C310,1005.2303 287.778458,1003.08947 281.851594,1003.00551 Z" id="Shape"></path>
        </g>
    </g>
</svg>