<?xml version="1.0" encoding="UTF-8"?>
<svg width="60px" height="55px" viewBox="0 0 60 55" version="1.1" xmlns="http://www.w3.org/2000/svg" xmlns:xlink="http://www.w3.org/1999/xlink">
    <g  stroke="none" stroke-width="1" fill="none" fill-rule="evenodd">
        <g  transform="translate(-235, -456)" fill="#019DF4">
            <g  transform="translate(235, 456)">
                <g  transform="translate(0.9836, 0)">
                    <path d="M44.2874871,19.2970507 C43.6996744,19.8428767 43.5821118,20.9093369 43.5821118,21.71548 C43.5821118,22.5132258 43.6996744,23.5796859 44.2874871,24.1087174 C44.8669024,24.6461461 45.9669519,24.7553113 46.7898896,24.7553113 C47.6128274,24.7553113 48.7044795,24.6461461 49.2754975,24.1171147 C49.8549129,23.5796859 49.9724754,22.5216231 49.9724754,21.71548 C49.9724754,20.9093369 49.8465156,19.8428767 49.2671002,19.2970507 C48.6876849,18.7596219 47.5960327,18.658854 46.7814923,18.658854 C45.9669519,18.658854 44.8752997,18.7596219 44.2874871,19.2970507 L44.2874871,19.2970507 Z M41.7347005,26.6866958 C40.5086912,25.5614544 39.8872893,23.8903869 39.8872893,21.71548 C39.8872893,19.5405731 40.5086912,17.8611083 41.7347005,16.7274695 C42.9103259,15.6358174 44.6149827,15.0899913 46.7898896,15.0899913 C48.9731939,15.0899913 50.661056,15.6358174 51.8450787,16.7358668 C53.0626907,17.8695056 53.6756953,19.5489704 53.6756953,21.7238773 C53.6756953,23.8987843 53.0542934,25.5698517 51.8450787,26.6950932 C50.6694533,27.778348 48.9731939,28.3325714 46.7898896,28.3325714 C44.6065854,28.324174 42.9103259,27.7699506 41.7347005,26.6866958 L41.7347005,26.6866958 Z M9.74929323,19.2718587 C9.16987787,19.8176848 9.043918,20.8841449 9.043918,21.690288 C9.043918,22.4880338 9.16987787,23.554494 9.7408959,24.0919227 C10.3119139,24.6209541 11.4119634,24.7301193 12.2265038,24.7301193 C13.0410443,24.7301193 14.1410937,24.6209541 14.7289064,24.0835254 C15.3083217,23.5460966 15.4342816,22.4880338 15.4342816,21.690288 C15.4342816,20.8925422 15.3083217,19.8176848 14.7289064,19.2718587 C14.1410937,18.73443 13.0494416,18.6252647 12.2349011,18.6252647 C11.4203607,18.6252647 10.3203113,18.73443 9.74929323,19.2718587 L9.74929323,19.2718587 Z M12.2349011,28.3073794 C10.0599942,28.3073794 8.36373476,27.753156 7.18810939,26.6699012 C5.9704974,25.5446598 5.34909542,23.8735923 5.34909542,21.6986854 C5.34909542,19.5237784 5.9704974,17.8443136 7.18810939,16.7106749 C8.36373476,15.6190227 10.0599942,15.0647994 12.2349011,15.0647994 C14.4098081,15.0647994 16.1144649,15.6106254 17.2900902,16.7022775 C18.5160995,17.8359163 19.1375015,19.5153811 19.1375015,21.690288 C19.1375015,23.865195 18.5160995,25.5362624 17.2900902,26.6699012 C16.1060675,27.753156 14.4098081,28.3073794 12.2349011,28.3073794 Z M29.2982636,11.2776062 C28.2737901,11.2692089 27.4508523,10.4714631 27.4592497,9.48057886 L27.5012363,1.77183538 C27.5096336,0.789348461 28.3325714,0 29.3486476,0 L29.3570449,0 C30.3815184,0.00839732405 31.2044562,0.806143109 31.1960589,1.79702735 L31.1540722,9.50577083 C31.1456749,10.4882577 30.3227372,11.2776062 29.3066609,11.2776062 L29.2982636,11.2776062 L29.2982636,11.2776062 Z M21.2704218,13.0578389 L17.802327,9.67371731 C17.0885544,8.97673941 17.0885544,7.85149799 17.8191216,7.15452009 C18.5412915,6.46593952 19.7169169,6.46593952 20.4306894,7.16291742 L23.8987843,10.547039 C24.6125568,11.2440169 24.6125568,12.3776557 23.8903869,13.0746336 C23.529302,13.4189238 23.0590518,13.5952676 22.5888017,13.5952676 C22.1101542,13.5952676 21.6315068,13.4105265 21.2704218,13.0578389 L21.2704218,13.0578389 Z M36.0497122,13.5868703 C35.5878593,13.5868703 35.1092119,13.4189238 34.7481269,13.0746336 C34.0175597,12.386053 34.0175597,11.2608116 34.7313323,10.5554363 L38.1994271,7.17131474 C38.9131997,6.46593952 40.088825,6.46593952 40.8193922,7.15452009 C41.5415621,7.84310067 41.5499594,8.97673941 40.8277895,9.67371731 L37.3596947,13.0578389 C37.0070071,13.4105265 36.5283596,13.5868703 36.0497122,13.5868703 Z M55.195611,50.5266988 L55.3131735,38.5773067 C55.3131735,37.7627663 55.1536244,36.6291275 54.3726732,35.8481764 C53.4993515,34.9664574 52.0466145,34.7901136 50.9801543,34.7901136 L42.5828303,34.7901136 C42.4736651,34.7901136 42.3393079,34.7817162 42.2217453,34.7901136 L42.188156,34.7901136 C41.8018791,34.7985109 41.3904103,34.7817162 40.9789414,34.7901136 C40.5338832,34.7985109 39.8537,34.7901136 39.4590257,34.647359 C39.1399274,34.5381938 38.5521147,34.126725 38.325387,33.8748052 C38.0734673,33.5976935 37.4016813,32.6823852 37.4016813,32.6823852 L31.405992,24.9064631 L31.405992,29.1639064 L35.629846,34.5130019 L37.4604626,36.822266 C37.4604626,36.822266 37.8887261,37.3093108 38.0482753,37.678793 C38.1994271,38.014686 38.2414137,38.7368559 38.2414137,38.9635836 L38.1994271,42.7255848 L38.1154539,50.5266988 L48.3853812,50.5266988 L48.3853812,42.3477052 C48.3853812,41.356821 49.2167163,40.5674725 50.2327925,40.5674725 C51.2488687,40.5674725 52.0802038,41.3652183 52.0802038,42.3477052 L52.0802038,50.5266988 L55.195611,50.5266988 L55.195611,50.5266988 Z M27.6104015,29.1387145 L27.6104015,24.8812712 L21.6147121,32.6655906 C21.6147121,32.6655906 20.9429262,33.5808989 20.6910065,33.8580106 C20.4642787,34.1183276 19.876466,34.5213992 19.5573677,34.6305644 C19.1626935,34.7733189 18.4741129,34.7817162 18.0374521,34.7733189 C17.6259832,34.7649216 17.206117,34.7817162 16.8282374,34.7733189 L8.03623912,34.7733189 C6.96977896,34.7733189 5.52543923,34.95806 4.6437202,35.8397791 C3.87116639,36.6207302 3.70321991,37.7543689 3.70321991,38.5689094 L3.82078244,50.5183015 L6.93618967,50.5183015 L6.93618967,42.3393079 C6.93618967,41.356821 7.76752475,40.5590752 8.78360096,40.5590752 C9.79967717,40.5590752 10.6310123,41.356821 10.6310123,42.3393079 L10.6310123,50.5183015 L20.9009396,50.5183015 L20.8253637,42.7087901 L20.7749797,38.946789 C20.7749797,38.7200612 20.8253637,37.9978913 20.9681182,37.6619984 C21.1276673,37.2925161 21.5559308,36.8054713 21.5559308,36.8054713 L23.3865475,34.4962072 L27.6104015,29.1387145 L27.6104015,29.1387145 Z M57.0430223,33.3793631 C58.3362102,34.672551 59.0163934,36.4695784 59.0163934,38.585704 L58.8652416,53.3481997 C58.8652416,53.7596686 58.512554,54.0955615 58.0842905,54.0955615 L35.1679931,54.0955615 C34.7397296,54.0955615 34.387042,53.7596686 34.387042,53.3481997 L34.5297965,39.0055702 L29.4997994,32.6403986 L24.4865969,38.9887756 L24.6377488,53.3314051 C24.6377488,53.7512713 24.2850612,54.0787669 23.8484003,54.0787669 L0.93210297,54.0787669 C0.495442119,54.0787669 0.151151833,53.7428739 0.151151833,53.3314051 L0,38.5605121 C0,36.4527837 0.680183248,34.6557564 1.97337115,33.3541711 C3.38412159,31.9434207 5.47505528,31.1960589 8.02784179,31.1960589 L16.4251658,31.1960589 C16.9877866,31.1960589 17.5252153,31.2464428 18.0374521,31.3220187 L27.9546918,18.4573183 L27.9630891,18.4489209 L27.9798837,18.423729 C28.0050757,18.3901397 28.0470623,18.3649477 28.0722543,18.3397557 C28.1646249,18.2305905 28.2653928,18.1214253 28.3829553,18.0458494 C28.4333392,18.0122601 28.4837232,17.9954654 28.5341071,17.9702735 C28.634875,17.9114922 28.7440402,17.8443136 28.8700001,17.802327 C28.8783974,17.7939297 28.8951921,17.802327 28.9035894,17.7939297 C28.9287814,17.7855323 28.945576,17.7855323 28.970768,17.7855323 C29.1303171,17.7435457 29.2982636,17.7099564 29.4662101,17.7099564 C29.5081967,17.7099564 29.541786,17.7267511 29.5837726,17.7267511 C29.7349245,17.7351484 29.877679,17.751943 30.0204335,17.7939297 C30.0288308,17.7939297 30.0288308,17.802327 30.0288308,17.802327 L30.0204335,17.7939297 L30.0372281,17.7939297 C30.0456255,17.7939297 30.0456255,17.802327 30.0456255,17.802327 C30.0708174,17.8107243 30.0792148,17.8107243 30.1044067,17.8107243 C30.1128041,17.8191216 30.1295987,17.8107243 30.137996,17.8191216 C30.2639559,17.8611083 30.3647238,17.9282869 30.4822863,17.9870681 C30.5242729,18.0122601 30.5830542,18.0290547 30.6250408,18.062644 C30.7426034,18.1466173 30.8433712,18.2473852 30.9357418,18.3565504 C30.9693311,18.3901397 31.0029204,18.4069343 31.0281124,18.4489209 L31.044907,18.4657156 L31.0533043,18.4741129 L40.9705441,31.3472107 C41.4827808,31.2716348 42.0202096,31.2296482 42.5828303,31.2296482 L50.9801543,31.2296482 C53.5413382,31.2212508 55.6322718,31.9686127 57.0430223,33.3793631 Z" ></path>
                </g>
            </g>
        </g>
    </g>
</svg>